<svg id="Layer_1" data-name="Layer 1" xmlns="http://www.w3.org/2000/svg" viewBox="0 0 175.75 419.53"><defs><style>.cls-1{fill:none;stroke:blue;stroke-miterlimit:10;stroke-width:0.75px;}.cls-2{fill:blue;}</style></defs><circle class="cls-1" cx="17.57" cy="51.97" r="17.2"/><circle class="cls-1" cx="17.57" cy="17.57" r="17.2"/><circle class="cls-1" cx="51.97" cy="51.97" r="17.2"/><circle class="cls-1" cx="51.97" cy="17.57" r="17.2"/><circle class="cls-1" cx="120.76" cy="51.97" r="17.2"/><circle class="cls-1" cx="120.76" cy="17.57" r="17.2"/><circle class="cls-1" cx="86.36" cy="17.57" r="17.2"/><path class="cls-2" d="M3.24,135.33H6.63c1.74,0,2.94,1,2.94,2.65s-1.19,2.71-3,2.71H4v4.14H3.24ZM4,140H6.61c1.53,0,2.17-.81,2.17-2a1.9,1.9,0,0,0-2.12-2H4Z"/><path class="cls-2" d="M11.29,138.11a13.35,13.35,0,0,0,.61-3.28h.7a13.87,13.87,0,0,1-.71,3.28Z"/><path class="cls-2" d="M17.53,136h-3.2v-.68h7.15V136H18.27v8.82h-.74Z"/><path class="cls-2" d="M23.62,135.33v9.5h-.73v-9.5Z"/><path class="cls-2" d="M28.32,136H25.13v-.68h7.14V136h-3.2v8.82h-.75Z"/><path class="cls-2" d="M37.22,135.33h3.31c1.82,0,2.8,1,2.8,2.33a2.06,2.06,0,0,1-1.47,2.08,2.41,2.41,0,0,1,1.81,2.35c0,1.9-1.43,2.74-3.08,2.74H37.22Zm3.07,4.09c1.64,0,2.27-.62,2.27-1.72,0-.93-.66-1.69-2-1.69H37.94v3.41Zm-2.35,4.74h2.67a2,2,0,0,0,2.3-2c0-1.21-.78-2-2.69-2H37.94Z"/><path class="cls-2" d="M45.84,135.33h.74v8.83h5.1l-.13.67H45.84Z"/><path class="cls-2" d="M58.73,140.16H53.88v4h5.31l-.11.67H53.15v-9.5H59V136h-5.1v3.47h4.85Z"/><path class="cls-2" d="M61.72,135.33v5.76c0,2.52,1.43,3.17,2.77,3.17,1.59,0,2.77-.66,2.77-3.17v-5.76H68v5.72c0,3-1.58,3.89-3.55,3.89s-3.5-1-3.5-3.77v-5.84Z"/><path class="cls-2" d="M3.24,406.6H6.55c1.82,0,2.8,1,2.8,2.34A2,2,0,0,1,7.88,411a2.41,2.41,0,0,1,1.81,2.35c0,1.9-1.43,2.75-3.08,2.75H3.24Zm3.07,4.09c1.64,0,2.26-.61,2.26-1.71,0-.94-.65-1.7-2-1.7H4v3.41ZM4,415.43H6.63a2,2,0,0,0,2.3-2c0-1.21-.78-2-2.69-2H4Z"/><path class="cls-2" d="M11.86,406.6h.74v8.83h5.1l-.13.68H11.86Z"/><path class="cls-2" d="M19.55,406.6v5.76c0,2.52,1.43,3.18,2.77,3.18,1.59,0,2.77-.67,2.77-3.18V406.6h.75v5.72c0,3-1.58,3.89-3.55,3.89s-3.5-1-3.5-3.77V406.6Z"/><path class="cls-2" d="M34.08,411.43H29.23v4h5.31l-.11.68H28.5V406.6h5.83v.68h-5.1v3.47h4.85Z"/><path class="cls-2" d="M36.42,406.6h3.31c1.82,0,2.8,1,2.8,2.34A2,2,0,0,1,41.06,411a2.41,2.41,0,0,1,1.81,2.35c0,1.9-1.43,2.75-3.08,2.75H36.42Zm3.07,4.09c1.64,0,2.26-.61,2.26-1.71,0-.94-.65-1.7-2-1.7H37.14v3.41Zm-2.35,4.74h2.67a2,2,0,0,0,2.3-2c0-1.21-.78-2-2.69-2H37.14Z"/><path class="cls-2" d="M46,412.82l-1.2,3.29H44l3.49-9.51h.87L52,416.11h-.8L50,412.82Zm3.77-.68c-1.06-2.82-1.61-4.18-1.8-4.82h0c-.23.72-.84,2.4-1.7,4.82Z"/><path class="cls-2" d="M53.69,406.6h.74v8.83h5.1l-.13.68H53.69Z"/><path class="cls-2" d="M61,406.6h.73v8.83h5.11l-.14.68H61Z"/><path class="cls-2" d="M68.59,413.55a2.44,2.44,0,0,0,2.69,2c1.74,0,2.4-.87,2.4-1.9s-.47-1.74-2.56-2.25-2.88-1.16-2.88-2.53.91-2.42,3-2.42a2.78,2.78,0,0,1,3.09,2.43h-.76a2.12,2.12,0,0,0-2.37-1.75c-1.38,0-2.12.64-2.12,1.7s.62,1.45,2.37,1.89c2.68.66,3.07,1.74,3.07,2.88,0,1.4-1,2.6-3.22,2.6-2.37,0-3.24-1.38-3.42-2.66Z"/><path class="cls-2" d="M76,416.11v-1.76h.68v1.76Z"/><path class="cls-2" d="M78.67,406.6H82c1.82,0,2.8,1,2.8,2.34A2,2,0,0,1,83.31,411a2.41,2.41,0,0,1,1.81,2.35c0,1.9-1.43,2.75-3.08,2.75H78.67Zm3.07,4.09c1.64,0,2.27-.61,2.27-1.71,0-.94-.66-1.7-2-1.7H79.39v3.41Zm-2.35,4.74h2.67a2,2,0,0,0,2.3-2c0-1.21-.77-2-2.69-2H79.39Z"/><path class="cls-2" d="M88.22,412.82,87,416.11h-.75l3.49-9.51h.87l3.64,9.51h-.8l-1.24-3.29Zm3.76-.68c-1.06-2.82-1.6-4.18-1.79-4.82h0c-.23.72-.84,2.4-1.69,4.82Z"/><path class="cls-2" d="M96.69,411.67v4.44H96V406.6h3.4c1.88,0,2.87,1,2.87,2.5a2.16,2.16,0,0,1-1.78,2.23c1,.23,1.63.86,1.63,2.48v.37a6.6,6.6,0,0,0,.12,1.93h-.74a6.27,6.27,0,0,1-.14-2v-.24c0-1.56-.46-2.21-2.28-2.21Zm0-.68H99c1.67,0,2.44-.63,2.44-1.88s-.76-1.83-2.24-1.83h-2.5Z"/><path class="cls-2" d="M5.18,387H2v-.68H9.13V387H5.93v8.83H5.18Z"/><path class="cls-2" d="M11.41,386.31v5.76c0,2.53,1.43,3.18,2.77,3.18,1.59,0,2.77-.67,2.77-3.18v-5.76h.75V392c0,3-1.57,3.9-3.54,3.9s-3.51-1-3.51-3.78v-5.84Z"/><path class="cls-2" d="M26,391.15H21.1v4h5.31l-.11.68H20.36v-9.51h5.83V387H21.1v3.48H26Z"/><path class="cls-2" d="M39.54,389.71l-2.36,3.67c-1.16,1.77-2,2.58-3.51,2.58a2.41,2.41,0,0,1-2.45-2.42c0-1.16.53-2,2.53-3.13,1.39-.89,1.91-1.27,1.91-2.14a1.42,1.42,0,1,0-2.84.05c0,.61.42,1.18,1.23,2l5.63,5.54h-1l-5.14-5.07a3.3,3.3,0,0,1-1.4-2.43,2.07,2.07,0,0,1,2.18-2.14,2,2,0,0,1,2.06,2.09c0,.92-.5,1.52-2.17,2.55-1.92,1.09-2.24,1.75-2.24,2.66a1.83,1.83,0,0,0,1.72,1.81c1.1,0,1.84-.38,3.06-2.34l2-3.24Z"/><path class="cls-2" d="M47.05,387H43.86v-.68H51V387H47.8v8.83h-.75Z"/><path class="cls-2" d="M52.42,386.31h.73v4.15h5.7v-4.15h.74v9.51h-.74v-4.69h-5.7v4.69h-.73Z"/><path class="cls-2" d="M63.09,386.31v5.76c0,2.53,1.43,3.18,2.77,3.18,1.59,0,2.77-.67,2.77-3.18v-5.76h.75V392c0,3-1.58,3.9-3.55,3.9s-3.5-1-3.5-3.78v-5.84Z"/><path class="cls-2" d="M74.83,395.82v0c0-1.11,1-2.5,2.73-3.89,1.54-1.2,1.94-1.57,1.94-2.7a1.69,1.69,0,0,0-1.84-1.82c-1.22,0-1.86.59-2.09,1.89h-.69a2.64,2.64,0,0,1,2.78-2.54,2.37,2.37,0,0,1,2.58,2.43c0,1.39-.58,1.85-2.24,3.21a6.9,6.9,0,0,0-2.39,2.79h5l-.12.67Z"/><path class="cls-2" d="M87.71,391.28c0,2.05-.53,4.7-2.92,4.7s-2.9-2.43-2.9-4.63.62-4.63,2.94-4.63S87.71,389.17,87.71,391.28Zm-5.06.09c0,1.73.37,4,2.14,4S87,393.2,87,391.28c0-1.71-.36-3.91-2.12-3.91S82.65,389.38,82.65,391.37Z"/><path class="cls-2" d="M99.27,392v.66h-10V392Z"/><path class="cls-2" d="M100.46,395.82v0c0-1.11,1-2.5,2.72-3.89,1.55-1.2,1.95-1.57,1.95-2.7a1.69,1.69,0,0,0-1.84-1.82c-1.22,0-1.86.59-2.09,1.89h-.69a2.64,2.64,0,0,1,2.78-2.54,2.37,2.37,0,0,1,2.58,2.43c0,1.39-.58,1.85-2.24,3.21a6.82,6.82,0,0,0-2.39,2.79h5l-.12.67Z"/><path class="cls-2" d="M111.33,395.82v-2.5H107v-.66l4.29-5.78H112v5.79h1.2l-.09.65H112v2.5Zm0-5.85c0-.51,0-1.62,0-2.22-.37.65-2.5,3.49-3.53,4.92h3.5Z"/><path class="cls-2" d="M118.48,386.31h.73v4.15h5.7v-4.15h.74v9.51h-.74v-4.69h-5.7v4.69h-.73Z"/><path class="cls-2" d="M121.65,137.91a2.43,2.43,0,0,1,2.62-2.17,2.24,2.24,0,0,1,2.5,2.24,1.86,1.86,0,0,1-1.25,1.87v0a2.23,2.23,0,0,1,1.66,2.32,2.94,2.94,0,0,1-5.83.42h.71a2.17,2.17,0,0,0,2.24,1.73,2,2,0,0,0,2.13-2.12c0-1.43-.94-2-2.26-2h-.53v-.62h.43c1.35,0,2-.57,2-1.63a1.58,1.58,0,0,0-1.79-1.59,1.76,1.76,0,0,0-1.91,1.52Z"/><path class="cls-2" d="M128.81,144.83v-1.75h.68v1.75Z"/><path class="cls-2" d="M136.41,136.56h-3.84c-.1.89-.37,2.57-.48,3.13a2.45,2.45,0,0,1,2-.89c1.55,0,2.65,1,2.65,3,0,1.75-.9,3.23-2.89,3.23a2.68,2.68,0,0,1-2.8-2.34h.72a2.07,2.07,0,0,0,2.12,1.69c1.41,0,2.12-1,2.12-2.54,0-1.31-.57-2.34-2-2.34a2.07,2.07,0,0,0-2.16,1.36l-.68-.19c.29-1.2.6-3.68.72-4.74h4.53Z"/><path class="cls-2" d="M3.24,90H6.63c1.74,0,2.94,1,2.94,2.65s-1.19,2.72-3,2.72H4v4.14H3.24ZM4,94.73H6.61c1.53,0,2.17-.82,2.17-2a1.9,1.9,0,0,0-2.12-2H4Z"/><path class="cls-2" d="M11.51,96.26,10.3,99.55H9.55L13,90h.87l3.64,9.51h-.8l-1.23-3.29Zm3.76-.68c-1.06-2.82-1.6-4.18-1.79-4.82h0c-.23.72-.84,2.41-1.69,4.82Z"/><path class="cls-2" d="M19.37,97a2.45,2.45,0,0,0,2.69,2c1.74,0,2.4-.87,2.4-1.9S24,95.37,21.9,94.85,19,93.7,19,92.33s.91-2.42,2.95-2.42a2.78,2.78,0,0,1,3.09,2.43H24.3a2.12,2.12,0,0,0-2.37-1.75c-1.38,0-2.12.64-2.12,1.69s.62,1.46,2.37,1.89c2.68.67,3.07,1.74,3.07,2.88,0,1.4-1,2.61-3.22,2.61-2.37,0-3.24-1.39-3.42-2.66Z"/><path class="cls-2" d="M29.22,90.72H26V90h7.14v.68H30v8.83h-.75Z"/><path class="cls-2" d="M35.32,90v9.51h-.74V90Z"/><path class="cls-2" d="M38.05,97a2.44,2.44,0,0,0,2.69,2c1.73,0,2.4-.87,2.4-1.9s-.48-1.74-2.57-2.26-2.88-1.15-2.88-2.52.91-2.42,3-2.42a2.79,2.79,0,0,1,3.1,2.43H43a2.13,2.13,0,0,0-2.38-1.75c-1.37,0-2.12.64-2.12,1.69s.63,1.46,2.38,1.89c2.67.67,3.07,1.74,3.07,2.88,0,1.4-1,2.61-3.22,2.61-2.38,0-3.25-1.39-3.42-2.66Z"/><path class="cls-2" d="M131.13,114.88a2.43,2.43,0,0,1,2.62-2.17,2.24,2.24,0,0,1,2.5,2.24,1.86,1.86,0,0,1-1.25,1.87v0a2.23,2.23,0,0,1,1.66,2.32,2.94,2.94,0,0,1-5.83.42h.71a2.17,2.17,0,0,0,2.24,1.73,2,2,0,0,0,2.13-2.12c0-1.43-.94-2-2.26-2h-.53v-.62h.42c1.36,0,2-.57,2-1.63a1.58,1.58,0,0,0-1.79-1.59,1.76,1.76,0,0,0-1.91,1.52Z"/><path class="cls-2" d="M3.24,112.3H4v4.14h5.7V112.3h.74v9.51H9.67v-4.69H4v4.69H3.24Z"/><path class="cls-2" d="M18.79,117.13H13.94v4h5.31l-.11.68H13.21V112.3H19V113H13.94v3.47h4.85Z"/><path class="cls-2" d="M21.12,121.81V112.3h1.09c1.48,2.28,5,7.59,5.56,8.62h0c-.08-1.37-.07-2.77-.07-4.32v-4.3h.75v9.51h-1c-1.41-2.21-4.94-7.73-5.62-8.78h0c.07,1.25.05,2.64.05,4.36v4.42Z"/><path class="cls-2" d="M32,117.36v4.45h-.74V112.3h3.41c1.87,0,2.86,1,2.86,2.5A2.14,2.14,0,0,1,35.75,117c1,.24,1.63.87,1.63,2.49v.37a6.6,6.6,0,0,0,.12,1.93h-.74a6.27,6.27,0,0,1-.14-2v-.24c0-1.56-.46-2.22-2.28-2.22Zm0-.67h2.3c1.67,0,2.44-.63,2.44-1.88S36,113,34.5,113H32Z"/><path class="cls-2" d="M40.59,112.3v9.51h-.74V112.3Z"/><path class="cls-2" d="M46.78,112.3h3.31c1.82,0,2.8,1,2.8,2.33a2,2,0,0,1-1.47,2.08,2.41,2.41,0,0,1,1.81,2.35c0,1.9-1.43,2.75-3.08,2.75H46.78Zm3.07,4.09c1.64,0,2.27-.61,2.27-1.71,0-.94-.65-1.7-2-1.7H47.5v3.41Zm-2.35,4.74h2.68a2,2,0,0,0,2.29-2c0-1.21-.77-2-2.69-2H47.5Z"/><path class="cls-2" d="M56.33,118.52l-1.21,3.29h-.75l3.49-9.51h.87l3.64,9.51h-.8l-1.24-3.29Zm3.76-.68C59,115,58.49,113.66,58.3,113h0c-.23.72-.84,2.4-1.69,4.82Z"/><path class="cls-2" d="M64.8,117.36v4.45h-.74V112.3h3.4c1.88,0,2.87,1,2.87,2.5A2.14,2.14,0,0,1,68.55,117c1,.24,1.63.87,1.63,2.49v.37a6.6,6.6,0,0,0,.12,1.93h-.74a6.27,6.27,0,0,1-.14-2v-.24c0-1.56-.46-2.22-2.28-2.22Zm0-.67h2.3c1.67,0,2.44-.63,2.44-1.88S68.78,113,67.3,113H64.8Z"/><path class="cls-2" d="M72.65,112.3H75.8c2.61,0,4.42,1.82,4.42,4.67s-1.77,4.84-4.43,4.84H72.65Zm.74,8.83h2.29c2.51,0,3.75-1.77,3.75-4.12,0-2.09-1.11-4-3.75-4H73.39Z"/><path class="cls-2" d="M90.29,117c0,2.6-1.38,5-4.31,5-2.68,0-4.24-2.16-4.24-4.89s1.51-4.89,4.33-4.89C88.68,112.16,90.29,114.21,90.29,117Zm-7.76,0c0,2.19,1.21,4.25,3.49,4.25,2.45,0,3.49-2,3.49-4.26s-1.17-4.16-3.47-4.16S82.53,114.87,82.53,117Z"/><path class="cls-2" d="M93.16,112.3v5.76c0,2.52,1.43,3.17,2.77,3.17,1.59,0,2.77-.66,2.77-3.17V112.3h.75V118c0,3-1.58,3.89-3.55,3.89s-3.5-1-3.5-3.77V112.3Z"/><path class="cls-2" d="M102.84,112.3v9.51h-.73V112.3Z"/><path class="cls-2" d="M105.64,121.81V112.3h1.09c1.48,2.28,5,7.59,5.55,8.62h0c-.09-1.37-.07-2.77-.07-4.32v-4.3H113v9.51h-1c-1.41-2.21-4.94-7.73-5.62-8.78h0c.07,1.25.06,2.64.06,4.36v4.42Z"/><path class="cls-2" d="M10.41,234.93a3.48,3.48,0,0,1-3.57,2.65c-2.73,0-4.17-2.18-4.17-4.85s1.41-4.9,4.18-4.9a3.33,3.33,0,0,1,3.57,2.72H9.69a2.77,2.77,0,0,0-2.88-2.05c-2.36,0-3.35,2.16-3.35,4.21s1,4.19,3.4,4.19a2.78,2.78,0,0,0,2.81-2Z"/><path class="cls-2" d="M13.21,233v4.44h-.75V228h3.41c1.87,0,2.86,1,2.86,2.5A2.15,2.15,0,0,1,17,232.69c1,.23,1.63.87,1.63,2.48v.37a6.23,6.23,0,0,0,.13,1.93H18a6.27,6.27,0,0,1-.14-2v-.24c0-1.56-.46-2.21-2.28-2.21Zm0-.68H15.5c1.67,0,2.45-.63,2.45-1.88s-.76-1.83-2.24-1.83h-2.5Z"/><path class="cls-2" d="M26.64,232.79H21.79v4H27.1l-.11.68H21.06V228h5.82v.68H21.79v3.48h4.85Z"/><path class="cls-2" d="M37.2,233.09c0-1.86,0-3.63.06-4.59h0c-.38,1.28-2.31,6-3.52,9H33c-.91-2.33-2.91-7.54-3.34-9h0c.07,1.09.1,3.3.1,4.93v4.05H29V228h1.1c1.31,3.26,3,7.52,3.3,8.6h0c.22-.7,2.12-5.44,3.45-8.6h1.09v9.51H37.2Z"/><path class="cls-2" d="M41.58,234.18l-1.21,3.29h-.75L43.11,228H44l3.64,9.51h-.8l-1.24-3.29Zm3.76-.68c-1.06-2.82-1.6-4.18-1.79-4.82h0c-.23.72-.84,2.4-1.69,4.82Z"/><path class="cls-2" d="M49.31,237.47V228h1.08c1.48,2.28,5,7.59,5.56,8.62h0c-.08-1.37-.07-2.77-.07-4.31V228h.75v9.51h-1c-1.41-2.2-4.94-7.73-5.62-8.78h0c.07,1.25,0,2.64,0,4.36v4.42Z"/><path class="cls-2" d="M61.34,228.64H58.15V228h7.14v.68h-3.2v8.83h-.75Z"/><path class="cls-2" d="M131.13,230.54a2.43,2.43,0,0,1,2.62-2.17,2.24,2.24,0,0,1,2.5,2.24,1.86,1.86,0,0,1-1.25,1.87v0a2.23,2.23,0,0,1,1.66,2.32,2.94,2.94,0,0,1-5.83.42h.71a2.17,2.17,0,0,0,2.24,1.73,2,2,0,0,0,2.13-2.12c0-1.43-.94-2-2.26-2h-.53v-.62h.42c1.36,0,2-.57,2-1.63a1.58,1.58,0,0,0-1.79-1.59,1.76,1.76,0,0,0-1.91,1.52Z"/><path class="cls-2" d="M121.31,214.44v0c0-1.12,1-2.5,2.73-3.89,1.55-1.21,1.94-1.57,1.94-2.7a1.68,1.68,0,0,0-1.83-1.82c-1.23,0-1.86.59-2.1,1.89h-.69a2.64,2.64,0,0,1,2.79-2.54,2.37,2.37,0,0,1,2.58,2.43c0,1.39-.59,1.85-2.24,3.21a6.68,6.68,0,0,0-2.39,2.79h5l-.12.67Z"/><path class="cls-2" d="M128.8,214.44v-1.75h.68v1.75Z"/><path class="cls-2" d="M136.41,206.17h-3.84c-.1.88-.37,2.56-.48,3.12a2.44,2.44,0,0,1,2-.88c1.55,0,2.65,1,2.65,3,0,1.75-.9,3.23-2.89,3.23a2.68,2.68,0,0,1-2.8-2.34h.72a2.06,2.06,0,0,0,2.12,1.69c1.41,0,2.12-1,2.12-2.54,0-1.3-.57-2.34-2-2.34a2.07,2.07,0,0,0-2.16,1.36l-.68-.19c.29-1.19.6-3.68.72-4.74h4.52Z"/><path class="cls-2" d="M3.24,204.93H6.55c1.82,0,2.8,1,2.8,2.34a2.07,2.07,0,0,1-1.47,2.08,2.4,2.4,0,0,1,1.81,2.34c0,1.91-1.43,2.75-3.08,2.75H3.24ZM6.31,209c1.64,0,2.26-.61,2.26-1.71,0-.94-.65-1.7-2-1.7H4V209ZM4,213.76H6.63c1.25,0,2.3-.63,2.3-2,0-1.21-.78-2-2.69-2H4Z"/><path class="cls-2" d="M17.44,209.77H12.6v4h5.31l-.11.68H11.86v-9.51h5.83v.68H12.6v3.48h4.84Z"/><path class="cls-2" d="M25.36,209.77H20.51v4h5.31l-.11.68H19.78v-9.51h5.83v.68h-5.1v3.48h4.85Z"/><path class="cls-2" d="M28.44,210v4.44H27.7v-9.51h3.41c1.87,0,2.86,1,2.86,2.5a2.15,2.15,0,0,1-1.78,2.23c1,.23,1.63.87,1.63,2.48v.37a6.6,6.6,0,0,0,.12,1.93H33.2a6.23,6.23,0,0,1-.14-2v-.25c0-1.56-.46-2.21-2.28-2.21Zm0-.68h2.3c1.67,0,2.44-.63,2.44-1.88s-.76-1.83-2.24-1.83h-2.5Z"/><line class="cls-1" x1="-0.12" y1="69.22" x2="137.47" y2="69.22"/><line class="cls-1" x1="-0.12" y1="86.29" x2="137.47" y2="86.29"/><line class="cls-1" x1="-0.12" y1="178.45" x2="137.47" y2="178.45"/><line class="cls-1" x1="-0.12" y1="271.78" x2="137.47" y2="271.78"/><path class="cls-2" d="M5.3,376.85c0,2.12-.94,2.73-2.2,2.73a3.75,3.75,0,0,1-.81-.08v-.66a4.84,4.84,0,0,0,.84.06c1.28,0,1.44-1,1.44-2.06v-6.9H5.3Z"/><path class="cls-2" d="M8.62,369.94v5.76c0,2.52,1.42,3.18,2.77,3.18,1.59,0,2.77-.67,2.77-3.18v-5.76h.74v5.72c0,3-1.57,3.9-3.54,3.9s-3.51-1-3.51-3.78v-5.84Z"/><path class="cls-2" d="M17.57,379.45v-9.51h1.08c1.48,2.28,5,7.59,5.56,8.62h0c-.08-1.37-.07-2.77-.07-4.31v-4.31h.75v9.51h-1c-1.41-2.2-4.94-7.73-5.62-8.78h0c.07,1.25,0,2.64,0,4.36v4.42Z"/><path class="cls-2" d="M33.28,374.78H28.43v4h5.31l-.11.68H27.7v-9.51h5.82v.68H28.43v3.48h4.85Z"/><path class="cls-2" d="M44.93,375.64v.67h-10v-.67Z"/><path class="cls-2" d="M47.85,376.16l-1.21,3.29H45.9l3.49-9.51h.87l3.64,9.51h-.8l-1.24-3.29Zm3.76-.68c-1-2.82-1.6-4.18-1.79-4.82h0c-.23.72-.84,2.4-1.7,4.82Z"/><path class="cls-2" d="M55.89,369.94v5.76c0,2.52,1.43,3.18,2.77,3.18,1.59,0,2.77-.67,2.77-3.18v-5.76h.75v5.72c0,3-1.57,3.9-3.54,3.9s-3.51-1-3.51-3.78v-5.84Z"/><path class="cls-2" d="M72.12,379.45h-.61a7.44,7.44,0,0,1-.09-1.52,3.1,3.1,0,0,1-3.07,1.63c-2.73,0-4.13-2.08-4.13-4.78s1.49-5,4.28-5a3.39,3.39,0,0,1,3.7,2.82h-.73a2.84,2.84,0,0,0-3-2.15c-2.38,0-3.46,1.85-3.46,4.26,0,2.17,1,4.14,3.36,4.14s3-1.55,3-3.66v-.1H68.35v-.68h3.77Z"/><path class="cls-2" d="M75.31,369.94v5.76c0,2.52,1.43,3.18,2.78,3.18,1.58,0,2.77-.67,2.77-3.18v-5.76h.74v5.72c0,3-1.57,3.9-3.54,3.9s-3.51-1-3.51-3.78v-5.84Z"/><path class="cls-2" d="M84,376.89a2.44,2.44,0,0,0,2.69,2c1.74,0,2.4-.86,2.4-1.9s-.47-1.74-2.56-2.25-2.88-1.16-2.88-2.53.91-2.41,2.94-2.41a2.78,2.78,0,0,1,3.1,2.43h-.76a2.13,2.13,0,0,0-2.38-1.76c-1.37,0-2.11.64-2.11,1.7s.62,1.45,2.37,1.89c2.68.67,3.07,1.74,3.07,2.88,0,1.4-1,2.61-3.22,2.61-2.37,0-3.24-1.39-3.42-2.67Z"/><path class="cls-2" d="M93.83,370.62h-3.2v-.68h7.15v.68H94.57v8.83h-.74Z"/><path class="cls-2" d="M103.13,369.44a13.84,13.84,0,0,0-.61,3.28h-.69a13.41,13.41,0,0,1,.7-3.28Z"/><path class="cls-2" d="M104,379.45v0c0-1.12.95-2.5,2.73-3.89,1.55-1.21,1.94-1.57,1.94-2.7a1.68,1.68,0,0,0-1.83-1.82c-1.22,0-1.86.58-2.09,1.89h-.7a2.64,2.64,0,0,1,2.79-2.54,2.37,2.37,0,0,1,2.58,2.43c0,1.38-.59,1.85-2.24,3.2a6.75,6.75,0,0,0-2.39,2.8h5l-.13.67Z"/><path class="cls-2" d="M113,379.45v-8.08a6.13,6.13,0,0,1-2,1v-.64a7.34,7.34,0,0,0,2.13-1.33h.58v9Z"/><path class="cls-2" d="M4.22,188.37,3,191.66H2.26l3.49-9.51h.87l3.64,9.51h-.8l-1.24-3.29ZM8,187.69c-1.06-2.82-1.61-4.18-1.8-4.82h0c-.23.72-.84,2.4-1.7,4.82Z"/><path class="cls-2" d="M11.94,182.15h.74V191h5.1l-.13.68H11.94Z"/><path class="cls-2" d="M26.14,189.12a3.48,3.48,0,0,1-3.58,2.65c-2.73,0-4.17-2.18-4.17-4.85s1.42-4.9,4.19-4.9a3.33,3.33,0,0,1,3.57,2.73h-.73a2.76,2.76,0,0,0-2.88-2.06c-2.37,0-3.36,2.16-3.36,4.21s1,4.19,3.41,4.19a2.78,2.78,0,0,0,2.81-2Z"/><path class="cls-2" d="M36.19,186.84c0,2.59-1.39,4.95-4.32,4.95-2.68,0-4.24-2.16-4.24-4.89S29.14,182,32,182C34.57,182,36.19,184.07,36.19,186.84Zm-7.77,0c0,2.19,1.21,4.25,3.49,4.25,2.46,0,3.49-2,3.49-4.26s-1.17-4.16-3.46-4.16C29.49,182.69,28.42,184.72,28.42,186.86Z"/><path class="cls-2" d="M38.28,182.15H39v4.14h5.71v-4.14h.73v9.51h-.73V187H39v4.69h-.73Z"/><path class="cls-2" d="M56.1,186.84c0,2.59-1.39,4.95-4.32,4.95-2.68,0-4.24-2.16-4.24-4.89S49.05,182,51.87,182C54.48,182,56.1,184.07,56.1,186.84Zm-7.77,0c0,2.19,1.21,4.25,3.49,4.25,2.46,0,3.49-2,3.49-4.26s-1.17-4.16-3.46-4.16C49.4,182.69,48.33,184.72,48.33,186.86Z"/><path class="cls-2" d="M58.19,182.15h.73V191H64l-.14.68h-5.7Z"/><path class="cls-2" d="M66.23,182.15v9.51H65.5v-9.51Z"/><path class="cls-2" d="M76.06,189.12a3.47,3.47,0,0,1-3.57,2.65c-2.73,0-4.17-2.18-4.17-4.85s1.41-4.9,4.18-4.9a3.33,3.33,0,0,1,3.57,2.73h-.73a2.75,2.75,0,0,0-2.88-2.06c-2.36,0-3.35,2.16-3.35,4.21s1,4.19,3.41,4.19a2.8,2.8,0,0,0,2.81-2Z"/><line class="cls-1" x1="-0.12" y1="103.64" x2="137.47" y2="103.64"/><line class="cls-1" x1="-0.12" y1="196.72" x2="137.47" y2="196.72"/><line class="cls-1" x1="-0.12" y1="291.29" x2="137.47" y2="291.29"/><line class="cls-1" x1="-0.12" y1="364.38" x2="137.47" y2="364.38"/><line class="cls-1" x1="-0.12" y1="401.83" x2="137.47" y2="401.83"/><path class="cls-2" d="M135.37,309.49v-8.08a6.26,6.26,0,0,1-2,1v-.64a7.8,7.8,0,0,0,2.13-1.33h.58v9Z"/><path class="cls-2" d="M5.63,309.49,2.1,300h.78l1.85,5c.53,1.43,1.13,3,1.33,3.83h0c.2-.71.85-2.38,1.38-3.78l1.92-5h.77l-3.66,9.5Z"/><path class="cls-2" d="M19.67,304.67c0,2.59-1.39,5-4.32,5-2.67,0-4.24-2.16-4.24-4.89s1.51-4.89,4.34-4.89C18.05,299.85,19.67,301.9,19.67,304.67Zm-7.77,0c0,2.18,1.21,4.25,3.49,4.25,2.46,0,3.49-2,3.49-4.27s-1.17-4.15-3.46-4.15S11.9,302.55,11.9,304.7Zm1.85-5.87v-1.32h.68v1.32Zm2.62,0v-1.32h.68v1.32Z"/><path class="cls-2" d="M21.79,306.94a2.45,2.45,0,0,0,2.69,2c1.74,0,2.4-.87,2.4-1.9s-.47-1.74-2.56-2.26-2.88-1.15-2.88-2.52.91-2.42,2.94-2.42a2.79,2.79,0,0,1,3.1,2.43h-.76a2.12,2.12,0,0,0-2.38-1.75c-1.37,0-2.12.64-2.12,1.7s.63,1.45,2.38,1.88c2.68.67,3.07,1.74,3.07,2.88,0,1.4-1,2.61-3.22,2.61-2.37,0-3.24-1.39-3.42-2.66Z"/><path class="cls-2" d="M29.75,300h.73v8.82h5.11l-.14.68h-5.7Z"/><path class="cls-2" d="M38.6,306.21l-1.2,3.28h-.75l3.49-9.5H41l3.64,9.5h-.8l-1.24-3.28Zm3.77-.68c-1.06-2.83-1.61-4.19-1.8-4.82h0c-.23.71-.84,2.4-1.7,4.82Z"/><path class="cls-2" d="M46.64,300v5.75c0,2.53,1.43,3.18,2.77,3.18,1.59,0,2.77-.66,2.77-3.18V300h.75v5.71c0,3-1.57,3.9-3.54,3.9s-3.51-1-3.51-3.78V300Z"/><path class="cls-2" d="M61.18,304.82H56.33v4h5.31l-.11.68H55.59V300h5.83v.67H56.33v3.48h4.85Z"/><path class="cls-2" d="M64.26,305.05v4.44h-.75V300h3.41c1.87,0,2.87,1,2.87,2.49A2.15,2.15,0,0,1,68,304.71c1,.23,1.63.87,1.63,2.49v.36a6.25,6.25,0,0,0,.12,1.93H69a6.6,6.6,0,0,1-.13-2v-.25c0-1.56-.47-2.21-2.29-2.21Zm0-.68h2.29c1.67,0,2.45-.62,2.45-1.87s-.76-1.84-2.24-1.84h-2.5Z"/><path class="cls-2" d="M121.31,331.94v-.05c0-1.11,1-2.49,2.73-3.88,1.55-1.21,1.94-1.57,1.94-2.7a1.68,1.68,0,0,0-1.83-1.82c-1.23,0-1.86.58-2.1,1.89h-.69a2.64,2.64,0,0,1,2.79-2.54,2.37,2.37,0,0,1,2.58,2.43c0,1.38-.59,1.84-2.24,3.2a6.75,6.75,0,0,0-2.39,2.8h5l-.12.67Z"/><path class="cls-2" d="M128.8,331.94v-1.76h.68v1.76Z"/><path class="cls-2" d="M136.41,323.67h-3.84c-.1.88-.37,2.56-.48,3.12a2.44,2.44,0,0,1,2-.88c1.55,0,2.65,1,2.65,3,0,1.75-.9,3.23-2.89,3.23a2.68,2.68,0,0,1-2.8-2.34h.72a2.07,2.07,0,0,0,2.12,1.69c1.41,0,2.12-1,2.12-2.54,0-1.31-.57-2.34-2-2.34a2.07,2.07,0,0,0-2.16,1.36l-.68-.19c.29-1.2.6-3.68.72-4.74h4.52Z"/><path class="cls-2" d="M3.24,322.43H6.63c1.74,0,2.94,1,2.94,2.65s-1.19,2.71-3,2.71H4v4.15H3.24ZM4,327.11H6.6c1.54,0,2.18-.81,2.18-2a1.9,1.9,0,0,0-2.12-2H4Z"/><path class="cls-2" d="M12.23,322.43v9.51H11.5v-9.51Z"/><path class="cls-2" d="M15,331.94v-9.51h1.08c1.48,2.28,5,7.59,5.56,8.62h0c-.08-1.37-.07-2.77-.07-4.32v-4.3h.75v9.51h-1c-1.41-2.2-4.94-7.73-5.62-8.78h0c.07,1.25,0,2.64,0,4.36v4.42Z"/><path class="cls-2" d="M25.16,322.43h.73v4.94c.76-.73,3.48-3.28,5.18-4.94h1l-4.26,4.05,4.51,5.46h-.91l-4.13-5-1.36,1.2v3.79h-.73Z"/><path class="cls-2" d="M37.1,329.38a2.43,2.43,0,0,0,2.69,2c1.73,0,2.4-.87,2.4-1.9s-.48-1.74-2.57-2.25-2.88-1.16-2.88-2.53.91-2.42,2.95-2.42a2.8,2.8,0,0,1,3.1,2.43H42A2.14,2.14,0,0,0,39.65,323c-1.37,0-2.12.64-2.12,1.7s.63,1.45,2.38,1.89c2.67.66,3.07,1.74,3.07,2.88,0,1.4-1,2.6-3.22,2.6-2.38,0-3.25-1.38-3.42-2.66Z"/><path class="cls-2" d="M53.08,327.11c0,2.6-1.38,5-4.32,5-2.67,0-4.24-2.16-4.24-4.89s1.51-4.89,4.34-4.89C51.46,322.29,53.08,324.34,53.08,327.11Zm-7.77,0c0,2.19,1.21,4.25,3.49,4.25,2.46,0,3.49-2,3.49-4.26S51.12,323,48.83,323,45.31,325,45.31,327.14Z"/><path class="cls-2" d="M55.17,322.43h3.15c2.61,0,4.42,1.82,4.42,4.67s-1.77,4.84-4.43,4.84H55.17Zm.74,8.83H58.2c2.51,0,3.75-1.77,3.75-4.12,0-2.09-1.11-4-3.75-4H55.91Z"/><path class="cls-2" d="M65.71,328.65l-1.21,3.29h-.74l3.49-9.51h.87l3.64,9.51H71l-1.23-3.29Zm3.76-.68c-1-2.82-1.6-4.18-1.79-4.82h0c-.23.72-.84,2.4-1.7,4.82Z"/><path class="cls-2" d="M3.24,285.71v-9.5H4.32c1.48,2.28,5,7.59,5.56,8.62h0c-.08-1.37-.07-2.77-.07-4.32v-4.3h.75v9.5h-1c-1.42-2.2-4.95-7.73-5.63-8.77h0c.07,1.25,0,2.63,0,4.36v4.41Z"/><path class="cls-2" d="M21.22,280.89c0,2.59-1.39,5-4.32,5-2.68,0-4.24-2.16-4.24-4.89s1.51-4.89,4.34-4.89C19.6,276.07,21.22,278.12,21.22,280.89Zm-7.77,0c0,2.18,1.21,4.25,3.49,4.25,2.46,0,3.49-2,3.49-4.27s-1.17-4.15-3.46-4.15C14.52,276.75,13.45,278.77,13.45,280.92Z"/><path class="cls-2" d="M23.31,285.71v-9.5H24.4c1.48,2.28,5,7.59,5.55,8.62h0c-.09-1.37-.07-2.77-.07-4.32v-4.3h.74v9.5h-1c-1.41-2.2-4.94-7.73-5.62-8.77h0c.07,1.25.06,2.63.06,4.36v4.41Z"/><path class="cls-2" d="M36.08,281.91v.67H32.66v-.67Z"/><path class="cls-2" d="M39,282.43l-1.21,3.28H37l3.49-9.5h.87l3.64,9.5h-.8L43,282.43Zm3.76-.68c-1.06-2.83-1.6-4.19-1.79-4.82h0c-.23.72-.84,2.4-1.69,4.82Z"/><path class="cls-2" d="M46.73,276.21h.73V285h5.1l-.13.68h-5.7Z"/><path class="cls-2" d="M60.92,283.17a3.47,3.47,0,0,1-3.57,2.65c-2.73,0-4.17-2.17-4.17-4.85s1.41-4.9,4.18-4.9a3.33,3.33,0,0,1,3.57,2.73H60.2a2.76,2.76,0,0,0-2.88-2.05C55,276.75,54,278.91,54,281s1,4.18,3.41,4.18a2.78,2.78,0,0,0,2.81-2Z"/><path class="cls-2" d="M71,280.89c0,2.59-1.39,5-4.32,5-2.68,0-4.24-2.16-4.24-4.89s1.51-4.89,4.33-4.89C69.35,276.07,71,278.12,71,280.89Zm-7.77,0c0,2.18,1.21,4.25,3.49,4.25,2.46,0,3.49-2,3.49-4.27s-1.17-4.15-3.46-4.15C64.27,276.75,63.2,278.77,63.2,280.92Z"/><path class="cls-2" d="M73.06,276.21h.73v4.14H79.5v-4.14h.73v9.5H79.5V281H73.79v4.68h-.73Z"/><path class="cls-2" d="M90.88,280.89c0,2.59-1.39,5-4.32,5-2.68,0-4.24-2.16-4.24-4.89s1.51-4.89,4.33-4.89C89.26,276.07,90.88,278.12,90.88,280.89Zm-7.77,0c0,2.18,1.21,4.25,3.49,4.25,2.46,0,3.49-2,3.49-4.27s-1.17-4.15-3.46-4.15C84.18,276.75,83.11,278.77,83.11,280.92Z"/><path class="cls-2" d="M93,276.21h.74V285h5.1l-.14.68H93Z"/><path class="cls-2" d="M101,276.21v9.5h-.73v-9.5Z"/><path class="cls-2" d="M110.84,283.17a3.46,3.46,0,0,1-3.57,2.65c-2.73,0-4.17-2.17-4.17-4.85s1.42-4.9,4.19-4.9a3.33,3.33,0,0,1,3.57,2.73h-.74a2.74,2.74,0,0,0-2.87-2.05c-2.37,0-3.36,2.16-3.36,4.21s1,4.18,3.41,4.18a2.78,2.78,0,0,0,2.81-2Z"/><path class="cls-2" d="M154.81,406.79v.61a7.44,7.44,0,0,1-1.52.09,3.1,3.1,0,0,1,1.63,3.07c0,2.73-2.08,4.13-4.78,4.13s-5-1.49-5-4.28a3.39,3.39,0,0,1,2.82-3.7v.73a2.83,2.83,0,0,0-2.14,3c0,2.38,1.85,3.46,4.25,3.46,2.17,0,4.14-1,4.14-3.36s-1.55-3.05-3.65-3.05h-.11v3.07h-.68v-3.77Z"/><path class="cls-2" d="M145.31,403.59h9.5v.74h-9.5Z"/><path class="cls-2" d="M151.53,399.91l3.28,1.21v.75l-9.5-3.49v-.87l9.5-3.64v.8l-3.28,1.24Zm-.68-3.76c-2.83,1.06-4.19,1.6-4.82,1.8h0c.72.23,2.4.84,4.82,1.7Z"/><path class="cls-2" d="M154.81,392.19h-9.5V391.1c2.28-1.48,7.59-5,8.62-5.56h0c-1.37.08-2.77.07-4.32.07h-4.3v-.75h9.5v1c-2.2,1.41-7.73,4.94-8.77,5.62h0c1.25-.07,2.63-.05,4.36-.05h4.41Z"/><path class="cls-2" d="M154.81,382.05h-9.5V381c2.28-1.48,7.59-5,8.62-5.56h0c-1.37.08-2.77.07-4.32.07h-4.3v-.75h9.5v1c-2.2,1.41-7.73,4.94-8.77,5.62h0c1.25-.07,2.63-.05,4.36-.05h4.41Z"/><path class="cls-2" d="M145.31,371.19h9.5v.73h-9.5Z"/><path class="cls-2" d="M150.44,356.77c-1.86,0-3.64,0-4.59-.06v0c1.27.38,6,2.31,9,3.52V361c-2.32.91-7.54,2.91-9,3.34v0c1.09-.07,3.3-.1,4.93-.1h4.05V365h-9.5v-1.1c3.25-1.31,7.52-2.95,8.59-3.3v0c-.69-.22-5.43-2.12-8.59-3.45V356h9.5v.74Z"/><path class="cls-2" d="M151.53,352.39l3.28,1.21v.75l-9.5-3.49V350l9.5-3.64v.8l-3.28,1.24Zm-.68-3.76c-2.83,1.06-4.19,1.6-4.82,1.79v0c.72.23,2.4.84,4.82,1.69Z"/><path class="cls-2" d="M154.81,344.66h-9.5v-1.08c2.28-1.48,7.59-5,8.62-5.56h0c-1.37.08-2.77.07-4.32.07h-4.3v-.75h9.5v1c-2.2,1.41-7.73,4.94-8.77,5.62h0c1.25-.07,2.63-.05,4.36-.05h4.41Z"/><path class="cls-2" d="M145.31,334.53v-.73h4.14v-5.7h-4.14v-.74h9.5v.74h-4.68v5.7h4.68v.73Z"/><path class="cls-2" d="M151.53,323.68l3.28,1.21v.75l-9.5-3.49v-.87l9.5-3.64v.8l-3.28,1.23Zm-.68-3.76c-2.83,1.06-4.19,1.6-4.82,1.79h0c.72.24,2.4.85,4.82,1.7Z"/><path class="cls-2" d="M146,315.21v3.19h-.67v-7.15H146v3.21h8.83v.75Z"/><path class="cls-2" d="M146,307.22v3.19h-.67v-7.14H146v3.2h8.83v.75Z"/><path class="cls-2" d="M151.53,302l3.28,1.21v.75l-9.5-3.49v-.87l9.5-3.64v.8l-3.28,1.23Zm-.68-3.76c-2.83,1.06-4.19,1.6-4.82,1.79h0c.72.24,2.4.85,4.82,1.7Z"/><path class="cls-2" d="M154.81,294.22h-9.5v-1.08c2.28-1.48,7.59-5,8.62-5.56h0c-1.37.08-2.77.07-4.32.07h-4.3v-.75h9.5v1c-2.2,1.42-7.73,4.95-8.77,5.63h0c1.25-.07,2.63,0,4.36,0h4.41Z"/><path class="cls-2" d="M171.11,412.46l-9.51,2.64v-.76c2.28-.64,7.54-2.08,8.65-2.3h0c-.88-.18-6.13-1.74-8.65-2.41v-.81c2.33-.62,7.91-2.14,8.64-2.29v0c-1.34-.3-6.37-1.89-8.64-2.54v-.75l9.51,2.91V407c-2.24.63-7.74,2.11-8.56,2.27v0c1.24.24,6.2,1.71,8.56,2.38Z"/><path class="cls-2" d="M167.82,401.33l3.29,1.21v.74l-9.51-3.49v-.87l9.51-3.64v.8l-3.29,1.24Zm-.68-3.77c-2.82,1.06-4.18,1.61-4.82,1.8h0c.72.23,2.41.84,4.82,1.7Z"/><path class="cls-2" d="M168.56,393.46a2.44,2.44,0,0,0,2-2.69c0-1.73-.87-2.4-1.9-2.4s-1.74.48-2.26,2.57-1.15,2.88-2.53,2.88-2.41-.91-2.41-2.95a2.79,2.79,0,0,1,2.43-3.1v.76a2.13,2.13,0,0,0-1.75,2.38c0,1.37.63,2.12,1.69,2.12s1.46-.63,1.89-2.38c.67-2.67,1.74-3.07,2.88-3.07,1.4,0,2.61,1,2.61,3.22,0,2.38-1.39,3.25-2.66,3.42Z"/><path class="cls-2" d="M168.56,385.42a2.44,2.44,0,0,0,2-2.69c0-1.73-.87-2.4-1.9-2.4s-1.74.48-2.26,2.57-1.15,2.88-2.53,2.88-2.41-.91-2.41-2.95a2.79,2.79,0,0,1,2.43-3.1v.76a2.13,2.13,0,0,0-1.75,2.38c0,1.37.63,2.12,1.69,2.12s1.46-.63,1.89-2.38c.67-2.67,1.74-3.07,2.88-3.07,1.4,0,2.61,1,2.61,3.22,0,2.38-1.39,3.25-2.66,3.42Z"/><path class="cls-2" d="M166.44,371.88v4.85h4v-5.31l.68.11v5.93H161.6v-5.82h.68v5.09h3.48v-4.85Z"/><path class="cls-2" d="M166.67,368.8h4.44v.75H161.6v-3.41c0-1.88,1-2.87,2.5-2.87a2.15,2.15,0,0,1,2.23,1.78c.23-1,.87-1.63,2.48-1.63h.37a6.25,6.25,0,0,0,1.93-.12v.75a6.6,6.6,0,0,1-2,.13h-.25c-1.56,0-2.21.46-2.21,2.28Zm-.68,0v-2.3c0-1.67-.62-2.44-1.87-2.44s-1.84.76-1.84,2.24v2.5Z"/><path class="cls-2" d="M171.11,353.68v.61a6.35,6.35,0,0,1-1.52.1,3.1,3.1,0,0,1,1.63,3.07c0,2.73-2.08,4.13-4.78,4.13s-5-1.5-5-4.28a3.41,3.41,0,0,1,2.82-3.71v.73a2.84,2.84,0,0,0-2.14,3c0,2.37,1.84,3.46,4.25,3.46,2.17,0,4.14-1.05,4.14-3.37s-1.55-3-3.65-3h-.11v3.07h-.68v-3.78Z"/><path class="cls-2" d="M167.82,350.1l3.29,1.21v.74l-9.51-3.49v-.87l9.51-3.64v.81l-3.29,1.23Zm-.68-3.76c-2.82,1.06-4.18,1.6-4.82,1.79h0c.72.23,2.41.84,4.82,1.7Z"/><path class="cls-2" d="M168.56,342.23a2.44,2.44,0,0,0,2-2.69c0-1.73-.87-2.4-1.9-2.4s-1.74.48-2.26,2.57-1.15,2.88-2.53,2.88-2.41-.91-2.41-2.95a2.79,2.79,0,0,1,2.43-3.1v.76a2.13,2.13,0,0,0-1.75,2.38c0,1.37.63,2.12,1.69,2.12s1.46-.63,1.89-2.38c.67-2.67,1.74-3.07,2.88-3.07,1.4,0,2.61,1,2.61,3.22,0,2.38-1.39,3.25-2.66,3.42Z"/><path class="cls-2" d="M168.56,334.19a2.44,2.44,0,0,0,2-2.69c0-1.73-.87-2.4-1.9-2.4s-1.74.48-2.26,2.57-1.15,2.88-2.53,2.88-2.41-.91-2.41-2.95a2.79,2.79,0,0,1,2.43-3.1v.76a2.13,2.13,0,0,0-1.75,2.38c0,1.37.63,2.12,1.69,2.12s1.46-.63,1.89-2.38c.67-2.67,1.74-3.07,2.88-3.07,1.4,0,2.61,1,2.61,3.22,0,2.38-1.39,3.25-2.66,3.42Z"/><path class="cls-2" d="M166.44,320.65v4.85h4v-5.31l.68.11v5.93H161.6v-5.82h.68v5.09h3.48v-4.85Z"/><path class="cls-2" d="M171.11,313.59H163a6.16,6.16,0,0,1,1.05,2h-.64a7.8,7.8,0,0,0-1.33-2.13v-.59h9Z"/><path class="cls-2" d="M171.11,306.62h-2.5v4.31H168l-5.78-4.29v-.71H168v-1.21l.65.1v1.11h2.5Zm-5.85,0-2.22,0c.65.36,3.49,2.49,4.92,3.53v-3.51Z"/><path class="cls-2" d="M145.31,253.79v-3.4c0-1.73,1-2.93,2.64-2.93s2.72,1.18,2.72,3V253h4.14v.75ZM150,253v-2.62c0-1.53-.81-2.17-2-2.17a1.9,1.9,0,0,0-2,2.12V253Z"/><path class="cls-2" d="M145.31,244.8h9.5v.73h-9.5Z"/><path class="cls-2" d="M154.81,242h-9.5v-1.09c2.28-1.48,7.59-4.95,8.62-5.55v0c-1.37.09-2.77.07-4.32.07h-4.3v-.74h9.5v1c-2.2,1.41-7.73,4.94-8.77,5.62v0c1.25-.07,2.63-.06,4.36-.06h4.41Z"/><path class="cls-2" d="M151.53,231l3.28,1.2v.75l-9.5-3.49v-.87l9.5-3.64v.8L151.53,227Zm-.68-3.77c-2.83,1.06-4.19,1.61-4.82,1.8h0c.72.23,2.4.84,4.82,1.7Z"/><path class="cls-2" d="M171.11,246.46v.61a7.44,7.44,0,0,1-1.52.09,3.1,3.1,0,0,1,1.63,3.07c0,2.73-2.08,4.13-4.78,4.13s-5-1.49-5-4.28a3.41,3.41,0,0,1,2.82-3.71v.74a2.82,2.82,0,0,0-2.14,3c0,2.37,1.84,3.46,4.25,3.46,2.17,0,4.14-1,4.14-3.37s-1.55-3-3.65-3h-.11v3.07h-.68v-3.77Z"/><path class="cls-2" d="M166.67,243.25h4.44V244H161.6v-3.41c0-1.88,1-2.87,2.5-2.87a2.15,2.15,0,0,1,2.23,1.78c.23-1,.87-1.63,2.48-1.63h.37a6.25,6.25,0,0,0,1.93-.12v.75a6.6,6.6,0,0,1-2,.13h-.25c-1.56,0-2.21.46-2.21,2.28Zm-.68,0V241c0-1.67-.62-2.44-1.87-2.44s-1.84.76-1.84,2.24v2.5Z"/><path class="cls-2" d="M166.29,227.48c2.59,0,5,1.39,5,4.32,0,2.68-2.16,4.24-4.89,4.24s-4.89-1.51-4.89-4.33C161.47,229.1,163.52,227.48,166.29,227.48Zm0,7.77c2.18,0,4.25-1.21,4.25-3.49,0-2.46-2-3.49-4.27-3.49s-4.15,1.17-4.15,3.46C162.15,234.18,164.17,235.25,166.32,235.25Z"/><path class="cls-2" d="M168.56,225.36a2.44,2.44,0,0,0,2-2.69c0-1.74-.87-2.4-1.9-2.4s-1.74.47-2.26,2.57-1.15,2.87-2.53,2.87-2.41-.91-2.41-2.94a2.79,2.79,0,0,1,2.43-3.1v.76a2.12,2.12,0,0,0-1.75,2.38c0,1.37.63,2.12,1.69,2.12s1.46-.63,1.89-2.38c.67-2.67,1.74-3.07,2.88-3.07,1.4,0,2.61,1,2.61,3.22,0,2.38-1.39,3.25-2.66,3.42Z"/><path class="cls-2" d="M168.56,217.32a2.44,2.44,0,0,0,2-2.69c0-1.74-.87-2.4-1.9-2.4s-1.74.47-2.26,2.57-1.15,2.87-2.53,2.87-2.41-.91-2.41-2.94a2.79,2.79,0,0,1,2.43-3.1v.76a2.12,2.12,0,0,0-1.75,2.38c0,1.37.63,2.12,1.69,2.12s1.46-.63,1.89-2.38c.67-2.68,1.74-3.07,2.88-3.07,1.4,0,2.61,1,2.61,3.22,0,2.38-1.39,3.25-2.66,3.42Z"/><path class="cls-2" d="M166.44,203.78v4.85h4v-5.31l.68.11v5.93H161.6v-5.82h.68v5.09h3.48v-4.85Z"/><path class="cls-2" d="M171.11,197.91H161.6v-1.08c2.28-1.48,7.59-5,8.63-5.56h0c-1.37.08-2.77.07-4.32.07H161.6v-.75h9.51v1c-2.2,1.42-7.73,4.95-8.77,5.63h0c1.25-.07,2.63-.05,4.36-.05h4.41Z"/><path class="cls-2" d="M166.44,182.2v4.85h4v-5.31l.68.11v5.93H161.6V182h.68v5.09h3.48V182.2Z"/><path class="cls-2" d="M161.6,179.21h5.76c2.53,0,3.18-1.42,3.18-2.77,0-1.59-.67-2.77-3.18-2.77H161.6v-.75h5.72c3,0,3.9,1.58,3.9,3.55s-1,3.5-3.78,3.5H161.6Z"/><path class="cls-2" d="M171.11,163v.61a7,7,0,0,1-1.52.1,3.09,3.09,0,0,1,1.63,3.07c0,2.73-2.08,4.13-4.78,4.13s-5-1.5-5-4.28a3.41,3.41,0,0,1,2.82-3.71v.73a2.84,2.84,0,0,0-2.14,3c0,2.37,1.84,3.46,4.25,3.46,2.17,0,4.14-1,4.14-3.37s-1.55-3-3.65-3h-.11v3.07h-.68V163Z"/><path class="cls-2" d="M167.82,159.4l3.29,1.2v.75l-9.51-3.49V157l9.51-3.64v.8l-3.29,1.24Zm-.68-3.77c-2.82,1.06-4.18,1.61-4.82,1.8h0c.72.23,2.41.84,4.82,1.7Z"/><path class="cls-2" d="M168.56,151.53a2.44,2.44,0,0,0,2-2.69c0-1.74-.87-2.4-1.9-2.4s-1.74.48-2.26,2.57-1.15,2.88-2.53,2.88-2.41-.91-2.41-2.95a2.79,2.79,0,0,1,2.43-3.1v.76a2.13,2.13,0,0,0-1.75,2.38c0,1.37.63,2.12,1.69,2.12s1.46-.63,1.89-2.38c.67-2.67,1.74-3.07,2.88-3.07,1.4,0,2.61,1,2.61,3.22,0,2.38-1.39,3.25-2.66,3.42Z"/><path class="cls-2" d="M168.56,143.49a2.44,2.44,0,0,0,2-2.69c0-1.74-.87-2.4-1.9-2.4s-1.74.48-2.26,2.57-1.15,2.88-2.53,2.88-2.41-.91-2.41-2.95a2.79,2.79,0,0,1,2.43-3.1v.76a2.13,2.13,0,0,0-1.75,2.38c0,1.37.63,2.12,1.69,2.12s1.46-.63,1.89-2.38c.67-2.67,1.74-3.07,2.88-3.07,1.4,0,2.61,1,2.61,3.22,0,2.38-1.39,3.25-2.66,3.42Z"/><path class="cls-2" d="M166.44,130v4.85h4v-5.31l.68.11v5.93H161.6v-5.82h.68v5.09h3.48V130Z"/><path class="cls-2" d="M171.11,120.59h-2.5v4.31H168l-5.78-4.29v-.71H168v-1.21l.65.1v1.11h2.5Zm-5.85,0-2.22,0c.65.36,3.49,2.5,4.92,3.53v-3.51Z"/><path class="cls-2" d="M171.11,113.27h-2.5v4.31H168l-5.78-4.29v-.71H168v-1.21l.65.1v1.11h2.5Zm-5.85,0-2.22,0c.65.36,3.49,2.5,4.92,3.53v-3.51Z"/><line class="cls-1" x1="141.04" x2="141.04" y2="419.93"/><line class="cls-1" x1="141.04" y1="86.29" x2="175.75" y2="86.29"/><line class="cls-1" x1="141.04" y1="69.2" x2="175.75" y2="69.2"/><line class="cls-1" x1="141.04" y1="260.29" x2="175.75" y2="260.29"/><polyline class="cls-1" points="141.04 100.64 158.4 105.91 175.75 100.64"/><path class="cls-2" d="M149,90.72h-3.2V90H153v.68h-3.21v8.83H149Z"/><path class="cls-2" d="M155.25,90V95.8c0,2.53,1.43,3.18,2.77,3.18,1.59,0,2.77-.67,2.77-3.18V90h.75v5.72c0,3-1.58,3.9-3.55,3.9s-3.5-1-3.5-3.78V90Z"/><path class="cls-2" d="M169.78,94.88h-4.85v4h5.31l-.11.68H164.2V90H170v.68h-5.1V94.2h4.85Z"/><path class="cls-2" d="M149,265.11h-3.2v-.68H153v.68h-3.21v8.83H149Z"/><path class="cls-2" d="M154.38,264.43h.73v4.15h5.71v-4.15h.73v9.51h-.73v-4.69h-5.71v4.69h-.73Z"/><path class="cls-2" d="M165.06,264.43v5.76c0,2.53,1.42,3.18,2.77,3.18,1.59,0,2.77-.67,2.77-3.18v-5.76h.74v5.72c0,3-1.57,3.9-3.54,3.9s-3.51-1-3.51-3.78v-5.84Z"/><line class="cls-1" x1="39.51" y1="-0.03" x2="39.51" y2="69.17"/><line class="cls-1" x1="5.33" y1="-0.03" x2="5.33" y2="69.17"/><line class="cls-1" x1="73.84" y1="0.37" x2="73.84" y2="69.17"/><line class="cls-1" x1="108.63" y1="-0.03" x2="108.63" y2="69.08"/><path class="cls-2" d="M171.11,64h0c-1.11,0-2.5-1-3.89-2.73-1.2-1.54-1.57-1.94-2.7-1.94a1.68,1.68,0,0,0-1.82,1.83,1.93,1.93,0,0,0,1.89,2.1v.69A2.64,2.64,0,0,1,162,61.11a2.37,2.37,0,0,1,2.43-2.58c1.39,0,1.85.59,3.21,2.25a6.9,6.9,0,0,0,2.79,2.39v-5l.67.12Z"/><path class="cls-2" d="M166.57,51.06c2.05,0,4.7.53,4.7,2.92s-2.43,2.91-4.63,2.91-4.63-.62-4.63-3S164.46,51.06,166.57,51.06Zm.09,5.07c1.73,0,4-.37,4-2.15s-2.13-2.17-4.05-2.17c-1.71,0-3.91.35-3.91,2.12S164.67,56.13,166.66,56.13Z"/><path class="cls-2" d="M167.31,39.51H168v10h-.66Z"/><path class="cls-2" d="M171.11,38.32h0c-1.11,0-2.5-1-3.89-2.73-1.2-1.54-1.57-1.94-2.7-1.94a1.69,1.69,0,0,0-1.82,1.84c0,1.22.59,1.86,1.89,2.09v.69A2.64,2.64,0,0,1,162,35.49a2.37,2.37,0,0,1,2.43-2.58c1.39,0,1.85.58,3.21,2.24a6.82,6.82,0,0,0,2.79,2.39v-5l.67.12Z"/><path class="cls-2" d="M171.11,27.45h-2.5v4.3H168l-5.78-4.29v-.71H168V25.54l.65.1v1.11h2.5Zm-5.85,0-2.22,0c.65.37,3.49,2.5,4.92,3.53v-3.5Z"/><path class="cls-2" d="M161.6,20.3v-.73h4.15V13.86H161.6v-.73h9.51v.73h-4.69v5.71h4.69v.73Z"/><polyline class="cls-1" points="141.04 274.51 158.4 279.78 175.75 274.51"/><path class="cls-2" d="M22.79,226.38a13.42,13.42,0,0,0,3.11-1.22l.37.59a13.52,13.52,0,0,1-3.16,1.14Z"/></svg>